<svg id="Layer_1" data-name="Layer 1" xmlns="http://www.w3.org/2000/svg" viewBox="0 0 512 409.72"><defs><style>.cls-1{fill:#fbb300;}</style></defs><path class="cls-1" d="M314.24,52.14a25.62,25.62,0,0,0-31.68,17.61L180.15,428.17a25.63,25.63,0,1,0,49.29,14.08L331.85,83.83a25.63,25.63,0,0,0-17.61-31.69Zm64.49,96.09a25.64,25.64,0,0,0,0,36.24L450.18,256l-71.53,71.53a25.63,25.63,0,0,0,36.24,36.24l89.61-89.61a25.64,25.64,0,0,0,0-36.24l-89.61-89.61a25.64,25.64,0,0,0-36.24,0Zm-245.38,0a25.64,25.64,0,0,0-36.24,0L7.5,237.84a25.64,25.64,0,0,0,0,36.24l89.61,89.61a25.63,25.63,0,0,0,36.24-36.24L61.82,256l71.53-71.53a25.64,25.64,0,0,0,0-36.24Z" transform="translate(0 -51.14)"/></svg>