<?xml version="1.0" encoding="utf-8"?>
<!-- Generator: Adobe Illustrator 26.0.1, SVG Export Plug-In . SVG Version: 6.00 Build 0)  -->
<svg version="1.1" id="Layer_1" xmlns="http://www.w3.org/2000/svg" xmlns:xlink="http://www.w3.org/1999/xlink" x="0px" y="0px"
	 viewBox="0 0 800 800" style="enable-background:new 0 0 800 800;" xml:space="preserve">
<style type="text/css">
	.st0{fill-rule:evenodd;clip-rule:evenodd;fill:#7B42E6;}
</style>
<path class="st0" d="M578.5,741.1c-67.3-16.9-205.2-64.4-330.2-189.4c-125-125-172.5-262.8-189.4-330.2c-9.7-38.7,7.8-76,37.4-97.2
	l77.6-55.4c45.4-32.4,108.6-21.4,140.3,24.5l48.9,70.6c20.7,30,13.6,71-16.1,92.2l-39,27.8c5.9,22.6,24.2,68.9,81.7,126.3
	c57.4,57.4,103.8,75.8,126.3,81.7l27.8-39c21.2-29.6,62.2-36.8,92.2-16.1l70.6,48.9c45.9,31.8,56.9,94.9,24.5,140.3l-55.4,77.6
	C654.5,733.3,617.2,750.8,578.5,741.1z M295.5,504.5c113.6,113.6,239.1,156.8,299.2,171.9c8.8,2.2,19.4-1.2,26.7-11.5l55.4-77.6
	c10.8-15.1,7.1-36.2-8.2-46.8l-70.6-48.9l-29.9,41.8c-12.2,17.1-34.8,30.5-61.1,24.8c-32.8-7.1-93.4-29.8-164.6-100.9
	s-93.9-131.8-100.9-164.6c-5.7-26.3,7.7-48.8,24.8-61.1l41.8-29.9l-48.9-70.6c-10.6-15.3-31.6-19-46.8-8.2L135,178.6
	c-10.2,7.3-13.7,17.9-11.4,26.7C138.7,265.5,181.8,390.9,295.5,504.5z"/>
</svg>
